<svg width="266" height="42" viewBox="0 0 266 42" fill="none" xmlns="http://www.w3.org/2000/svg">
    <path d="M15.3809 26.25C15.3809 25.8164 15.3164 25.4297 15.1875 25.0898C15.0586 24.7383 14.8242 24.416 14.4844 24.123C14.1445 23.8301 13.6641 23.5371 13.043 23.2441C12.4219 22.9395 11.6074 22.6289 10.5996 22.3125C9.45117 21.9375 8.35547 21.5156 7.3125 21.0469C6.28125 20.5664 5.36133 20.0098 4.55273 19.377C3.74414 18.7441 3.10547 18.0059 2.63672 17.1621C2.17969 16.3184 1.95117 15.334 1.95117 14.209C1.95117 13.1191 2.19141 12.1348 2.67188 11.2559C3.15234 10.377 3.82617 9.62695 4.69336 9.00586C5.56055 8.37305 6.58008 7.89258 7.75195 7.56445C8.92383 7.22461 10.2129 7.05469 11.6191 7.05469C13.4941 7.05469 15.1406 7.38867 16.5586 8.05664C17.9883 8.71289 19.1016 9.63867 19.8984 10.834C20.6953 12.0176 21.0938 13.3945 21.0938 14.9648H15.3984C15.3984 14.2734 15.252 13.6641 14.959 13.1367C14.6777 12.5977 14.2441 12.1758 13.6582 11.8711C13.084 11.5664 12.3633 11.4141 11.4961 11.4141C10.6523 11.4141 9.94336 11.543 9.36914 11.8008C8.80664 12.0469 8.37891 12.3867 8.08594 12.8203C7.80469 13.2539 7.66406 13.7285 7.66406 14.2441C7.66406 14.6543 7.76953 15.0293 7.98047 15.3691C8.20312 15.6973 8.51953 16.0078 8.92969 16.3008C9.35156 16.582 9.86719 16.8516 10.4766 17.1094C11.0859 17.3672 11.7832 17.6133 12.5684 17.8477C13.9395 18.2812 15.1523 18.7617 16.207 19.2891C17.2734 19.8164 18.1699 20.4141 18.8965 21.082C19.623 21.75 20.168 22.5059 20.5312 23.3496C20.9062 24.1934 21.0938 25.1484 21.0938 26.2148C21.0938 27.3516 20.8711 28.3594 20.4258 29.2383C19.9922 30.1172 19.3594 30.8672 18.5273 31.4883C17.707 32.0977 16.7227 32.5605 15.5742 32.877C14.4258 33.1934 13.1426 33.3516 11.7246 33.3516C10.4355 33.3516 9.16406 33.1875 7.91016 32.8594C6.65625 32.5195 5.51953 32.0039 4.5 31.3125C3.49219 30.6211 2.68359 29.7422 2.07422 28.6758C1.47656 27.5977 1.17773 26.3203 1.17773 24.8438H6.9082C6.9082 25.6172 7.01953 26.2734 7.24219 26.8125C7.46484 27.3398 7.78125 27.7676 8.19141 28.0957C8.61328 28.4238 9.12305 28.6582 9.7207 28.7988C10.3184 28.9395 10.9863 29.0098 11.7246 29.0098C12.5801 29.0098 13.2715 28.8926 13.7988 28.6582C14.3379 28.4121 14.7363 28.0781 14.9941 27.6562C15.252 27.2344 15.3809 26.7656 15.3809 26.25ZM33.9258 27.3223L39.6211 7.40625H46.002L37.2305 33H33.0645L33.9258 27.3223ZM28.7402 7.40625L34.418 27.3223L35.3145 33H31.0957L22.377 7.40625H28.7402ZM85.957 7.40625V33H80.2441V7.40625H85.957ZM93.7441 7.40625V11.8535H72.6152V7.40625H93.7441ZM117.422 19.6406V20.7832C117.422 22.7285 117.152 24.4746 116.613 26.0215C116.086 27.5684 115.33 28.8867 114.346 29.9766C113.373 31.0664 112.213 31.9043 110.865 32.4902C109.529 33.0645 108.047 33.3516 106.418 33.3516C104.789 33.3516 103.301 33.0645 101.953 32.4902C100.605 31.9043 99.4336 31.0664 98.4375 29.9766C97.4531 28.8867 96.6914 27.5684 96.1523 26.0215C95.6133 24.4746 95.3438 22.7285 95.3438 20.7832V19.6406C95.3438 17.6953 95.6133 15.9492 96.1523 14.4023C96.6914 12.8437 97.4473 11.5195 98.4199 10.4297C99.4043 9.33984 100.57 8.50781 101.918 7.93359C103.266 7.34766 104.754 7.05469 106.383 7.05469C108.012 7.05469 109.5 7.34766 110.848 7.93359C112.195 8.50781 113.355 9.33984 114.328 10.4297C115.312 11.5195 116.074 12.8437 116.613 14.4023C117.152 15.9492 117.422 17.6953 117.422 19.6406ZM111.639 20.7832V19.6055C111.639 18.3047 111.521 17.1562 111.287 16.1602C111.053 15.1523 110.713 14.3086 110.268 13.6289C109.822 12.9492 109.271 12.4395 108.615 12.0996C107.959 11.748 107.215 11.5723 106.383 11.5723C105.516 11.5723 104.76 11.748 104.115 12.0996C103.471 12.4395 102.926 12.9492 102.48 13.6289C102.047 14.3086 101.713 15.1523 101.479 16.1602C101.256 17.1562 101.145 18.3047 101.145 19.6055V20.7832C101.145 22.0723 101.256 23.2207 101.479 24.2285C101.713 25.2246 102.053 26.0684 102.498 26.7598C102.943 27.4512 103.488 27.9727 104.133 28.3242C104.789 28.6758 105.551 28.8516 106.418 28.8516C107.25 28.8516 107.988 28.6758 108.633 28.3242C109.289 27.9727 109.84 27.4512 110.285 26.7598C110.73 26.0684 111.064 25.2246 111.287 24.2285C111.521 23.2207 111.639 22.0723 111.639 20.7832Z" fill="#606DA6"/>
    <path d="M135.65 24.4219H141.346C141.252 26.1797 140.771 27.7324 139.904 29.0801C139.049 30.416 137.859 31.4648 136.336 32.2266C134.812 32.9766 133.002 33.3516 130.904 33.3516C129.229 33.3516 127.729 33.0645 126.404 32.4902C125.08 31.916 123.955 31.0957 123.029 30.0293C122.115 28.9512 121.412 27.6562 120.92 26.1445C120.439 24.6211 120.199 22.9043 120.199 20.9941V19.4297C120.199 17.5195 120.451 15.8027 120.955 14.2793C121.459 12.7559 122.18 11.4551 123.117 10.377C124.055 9.29883 125.18 8.47266 126.492 7.89844C127.805 7.32422 129.27 7.03711 130.887 7.03711C133.066 7.03711 134.906 7.42969 136.406 8.21484C137.906 9 139.066 10.0781 139.887 11.4492C140.719 12.8203 141.217 14.3848 141.381 16.1426H135.668C135.621 15.1465 135.434 14.3086 135.105 13.6289C134.777 12.9375 134.273 12.416 133.594 12.0645C132.914 11.7129 132.012 11.5371 130.887 11.5371C130.066 11.5371 129.346 11.6895 128.725 11.9941C128.115 12.2988 127.605 12.7734 127.195 13.418C126.797 14.0625 126.498 14.8828 126.299 15.8789C126.1 16.8633 126 18.0352 126 19.3945V20.9941C126 22.3418 126.088 23.5078 126.264 24.4922C126.439 25.4766 126.721 26.291 127.107 26.9355C127.506 27.5801 128.016 28.0605 128.637 28.377C129.258 28.6934 130.014 28.8516 130.904 28.8516C131.924 28.8516 132.773 28.6934 133.453 28.377C134.133 28.0488 134.654 27.5566 135.018 26.9004C135.381 26.2441 135.592 25.418 135.65 24.4219ZM192.533 7.40625V33H186.82L177.152 16.459V33H171.422V7.40625H177.152L186.838 23.9473V7.40625H192.533ZM208.16 7.40625V33H202.447V7.40625H208.16ZM215.947 7.40625V11.8535H194.818V7.40625H215.947ZM241.189 7.40625H251.016C252.973 7.40625 254.666 7.69922 256.096 8.28516C257.537 8.87109 258.645 9.73828 259.418 10.8867C260.191 12.0352 260.578 13.4531 260.578 15.1406C260.578 16.5469 260.35 17.7422 259.893 18.7266C259.436 19.7109 258.791 20.5254 257.959 21.1699C257.139 21.8145 256.178 22.3359 255.076 22.7344L253.213 23.7539H244.846L244.811 19.3066H251.033C251.889 19.3066 252.598 19.1543 253.16 18.8496C253.723 18.5449 254.145 18.1172 254.426 17.5664C254.719 17.0039 254.865 16.3477 254.865 15.5977C254.865 14.8242 254.719 14.1562 254.426 13.5938C254.133 13.0312 253.699 12.6035 253.125 12.3105C252.562 12.0059 251.859 11.8535 251.016 11.8535H246.92V33H241.189V7.40625ZM255.357 33L249.609 21.627L255.656 21.6094L261.492 32.7363V33H255.357Z" fill="black"/>
    <path d="M147 8V32.5098H163.5V29H153.514H151.5V26V20.5V17V11.5H163.5V10V8H147Z" fill="black" stroke="black"/>
    <rect x="155" y="17" width="6" height="6" fill="#869EE3"/>
    <path d="M51 8V32.5098H67.5V29H57.5143H55.5V26V20.5V17V11.5H67.5V10V8H51Z" fill="#606DA6" stroke="#606DA6"/>
    <rect x="59" y="17" width="6" height="6" fill="#869EE3"/>
    <path d="M220 8V32.5098H236.5V29H226.514H224.5V26V20.5V17V11.5H236.5V10V8H220Z" fill="black" stroke="black"/>
    <rect x="228" y="17" width="6" height="6" fill="#869EE3"/>
</svg>
